<svg xmlns="http://www.w3.org/2000/svg" viewBox="4437.329 853.589 17.237 17.237"><defs><style>.a{fill:#e04f5f;}.b{fill:#fff;}</style></defs><g transform="translate(4437.329 853.586)"><path class="a" d="M17.237,8.622A8.619,8.619,0,1,0,8.619,17.24,8.619,8.619,0,0,0,17.237,8.622Z"/><path class="b" d="M145.987,131.8l2.52-2.925a.762.762,0,0,0-1.155-1l-2.371,2.752-2.37-2.752a.762.762,0,1,0-1.155,1l2.52,2.925-2.52,2.925a.762.762,0,0,0,1.155,1l2.37-2.752,2.371,2.752a.762.762,0,0,0,1.155-1Z" transform="translate(-136.362 -123.179)"/></g></svg>